<svg height="464pt" viewBox="-56 0 464 464.03428" width="464pt" xmlns="http://www.w3.org/2000/svg"><path d="m352.015625 176.035156c.019531-91.996094-70.8125-168.484375-162.539063-175.519531-91.722656-7.035156-173.394531 57.753906-187.40625 148.675781-14.011718 90.921875 44.359376 177.296875 133.945313 198.203125l40 116.640625 40-116.640625c79.585937-18.671875 135.886719-89.613281 136-171.359375zm0 0" fill="#005e9c"/><path d="m320.015625 175.691406c0 79.527344-64.46875 144-144 144-79.527344 0-144-64.472656-144-144 0-79.53125 64.472656-144 144-144 79.53125 0 144 64.46875 144 144zm0 0" fill="#168fba"/><g fill="#d8d8d3"><path d="m136.015625 161.785156-16 4v-61.75h-16v61.75l-16-4v-57.75h-16v64c.003906 3.671875 2.503906 6.871094 6.066406 7.757813l25.933594 6.480469v89.761718h16v-89.761718l25.9375-6.480469c3.5625-.886719 6.0625-4.085938 6.0625-7.757813v-64h-16zm0 0"/><path d="m280.015625 152.035156c0-19.199218-15.574219-56-40-56-24.421875 0-40 36.800782-40 56 .027344 19 13.390625 35.371094 32 39.199219v80.800781h16v-80.800781c18.613281-3.828125 31.976563-20.199219 32-39.199219zm0 0"/></g></svg>